<?xml version="1.0" encoding="utf-8"?>
<!-- Generator: Adobe Illustrator 23.1.1, SVG Export Plug-In . SVG Version: 6.00 Build 0)  -->
<svg version="1.1" id="Layer_1" xmlns="http://www.w3.org/2000/svg" xmlns:xlink="http://www.w3.org/1999/xlink" x="0px" y="0px"
	 viewBox="0 0 189.5 178.6" style="enable-background:new 0 0 189.5 178.6;" xml:space="preserve">
<style type="text/css">
	.st0{fill:#FFFFFF;}
	.st1{fill:#E15443;}
	.st2{fill:none;}
	.st3{fill:#7082B0;}
	.st4{fill:#D4EBEB;}
	.st5{fill:#DCDDDF;}
</style>
<g>
	<path class="st0" d="M149.7,21.3c-0.1-0.1-0.2-0.2-0.3-0.3c-0.3-0.3-0.6-0.7-1.1-0.9c-1.9-0.8-3.8-1.6-5.6-2.3
		c-0.7-0.3-1.3-0.5-2-0.8l-4.1-1.6c-3.4-1.4-6.7-2.7-10.1-4.1c-2.4-1-4.9-2-7.3-3c-5.4-2.2-10.9-4.4-16.3-6.6
		c-0.7-0.3-1.7-0.3-2.4,0.3c-0.7,0.6-0.7,1.8-0.6,2.5c0.7,2.8,1.5,5.7,2.2,8.5l0.7,2.6c-2.7,0-5.5-0.1-8.2-0.1l-3.3,0
		c-2.3,0-4.7-0.1-7-0.1c-0.7,0-1.3,0.3-1.8,0.8c-0.5,0.5-0.7,1.2-0.7,1.9c0,2.4,0.1,4.8,0.1,7.1c0,1.8,0.8,2.5,2.5,2.5c0,0,0,0,0,0
		l16.8,0c0.5,0,1.1,0,1.6,0l-0.6,1.7c-0.9,2.6-1.8,5.3-2.7,8c-0.2,0.6-0.3,1.8,0.4,2.5c0.4,0.4,1,0.6,1.6,0.6c0.3,0,0.6-0.1,0.8-0.1
		c5.5-1.8,11-3.7,16.4-5.5l5.2-1.8c4.2-1.4,8.4-2.8,12.6-4.3l7.3-2.5c0.4-0.1,0.8-0.3,1.2-0.4c1.1-0.4,2.2-0.7,3.3-1.2
		c0.6-0.2,1-0.7,1.3-1.1c0.1-0.1,0.2-0.2,0.3-0.3l0.8-0.9L149.7,21.3z M105.6,31.7c0.3-0.8,0.5-1.5,0.8-2.3c0.4-1,0.7-2.1,1.1-3.1
		c0.4-1.1,0.1-1.8-0.2-2.3c-0.3-0.4-0.9-0.9-2-0.9c0,0,0,0,0,0c-4.9,0-9.7,0-14.6,0l-4.7,0v-3.7c0.8,0,1.5,0,2.3,0
		c3.1,0,6.2,0.1,9.3,0.1l7.3,0.1c0.7,0,1.7-0.1,2.2-0.8c0.6-0.8,0.4-1.7,0.2-2.5l-2.4-9.4l37.1,15l-37.3,12.7
		C104.9,33.7,105.2,32.7,105.6,31.7z"/>
	<path class="st1" d="M102.7,36.7c0.7-1.9,1.2-3.6,1.8-5.3c0.6-1.8,1.2-3.6,1.9-5.4c0.4-1,0-1.6-1.1-1.6c-6.5,0-13,0-19.5,0.1
		c-0.3,0-0.6,0-1,0c0-2,0-4,0-6.1c1.1,0,2.3,0,3.5,0c5.5,0.1,11,0.2,16.6,0.3c1.4,0,1.7-0.4,1.3-1.8c-0.9-3.7-1.9-7.3-2.8-11
		c0-0.2-0.1-0.3-0.1-0.7c14,5.7,27.9,11.3,41.8,16.9c0,0.1,0,0.1,0,0.2C131,27,116.9,31.8,102.7,36.7z"/>
</g>
<g>
	<path class="st2" d="M3.4,6.7v20.1c40.9,0.4,72.1,34,73.4,74.9c0,0,0,0.1,0,0.1c1,13.5,12.3,23.9,25.8,23.9c0.1,0,0.1,0,0.2,0
		c14.3-0.1,25.9-11.8,25.9-26.1c0-0.1,0-0.1,0-0.2v-4.2l20.7-0.1v0l26.2-0.2l0,4.2c0,0.1,0,0.2,0,0.3c0.1,19.8-7.5,38.5-21.4,52.6
		c-13.9,14.1-32.5,21.9-52.3,22.1c-0.2,0-0.3,0-0.5,0c-19.4,0-37.7-7.4-51.6-20.9c-13.1-12.7-20.9-29.4-22.3-47.4l-0.2-4.1
		c0.2-18.2-12.2-26.5-23.7-26.7c0,0-0.1,0-0.1,0v117.4H202V6.7H3.4z"/>
	<path class="st0" d="M27.2,101.8l0.2,4.1c1.4,18,9.3,34.7,22.3,47.4c13.9,13.5,32.2,20.9,51.6,20.9c0.2,0,0.3,0,0.5,0
		c19.8-0.1,38.4-8,52.3-22.1c13.9-14.1,21.5-32.8,21.4-52.6c0-0.1,0-0.2,0-0.3l0-4.2l-26.2,0.2v0l-20.7,0.1v4.2c0,0.1,0,0.1,0,0.2
		c0.1,14.3-11.5,26-25.9,26.1c-0.1,0-0.1,0-0.2,0c-13.5,0-24.8-10.5-25.8-23.9c0,0,0-0.1,0-0.1C75.5,60.8,44.3,27.2,3.4,26.8v4.6
		c0,0,0,0,0,0c38.7,0.4,69.7,32,69.3,70.7c0,0.1,0,0.4,0,0.4c1.1,15.7,14.2,28,30.2,27.9c16.7-0.1,30.1-13.7,30-30.4
		c0,0,0-0.1,0-0.1l12.3-0.1c0,0,0,0,0,0l6,0l0,0l0.3,0l7.8,0v0l12.2-0.1c0,0.1,0,0.2,0,0.3c0.2,38.7-30.9,70.2-69.6,70.5
		c-38.2,0.2-69.4-30.1-70.4-68.1c0,0,0,0,0,0c0.2-16.7-10.4-30.7-27.9-30.8c-0.1,0-0.2,0-0.2,0v3.8c0,0,0.1,0,0.1,0
		C15.1,75.3,27.4,83.7,27.2,101.8z"/>
	<path class="st3" d="M31.5,102.2C31.5,102.2,31.5,102.2,31.5,102.2c1.1,38,32.3,68.4,70.5,68.1c38.7-0.2,69.8-31.8,69.6-70.5
		c0-0.1,0-0.2,0-0.3l-12.2,0.1c0,0.1,0,0.1,0,0.2c0.2,30.9-24.7,56.1-55.6,56.3c-30.3,0.2-54.1-22.2-59-52.5
		c-5.1-31.5-20.5-41-41.3-41.8v9.6c0.1,0,0.2,0,0.2,0C21.1,71.5,31.7,85.5,31.5,102.2z"/>
	<polygon class="st3" points="151.3,99.7 151.3,99.7 151.6,99.7 	"/>
	<path class="st4" d="M60.1,99.3c2,25.2,21.6,40.7,43.6,40.6s39.6-18,39.5-40c0-0.1,0-0.1,0-0.2l2.1,0c0,0,0,0,0,0L133,99.8
		c0,0,0,0.1,0,0.1c0.1,16.7-13.3,30.3-30,30.4c-16,0.1-29.1-12.2-30.2-27.9c0,0,0-0.3,0-0.4c0.4-38.7-30.7-70.3-69.3-70.7
		c0,0,0,0,0,0v14.2C33.4,46.7,57.6,66.6,60.1,99.3z"/>
	<path class="st5" d="M44.8,103.6c4.9,30.4,28.7,52.7,59,52.5c30.9-0.2,55.7-25.4,55.6-56.3c0-0.1,0-0.1,0-0.2v0l-7.8,0l-0.3,0l-6,0
		l-2.1,0c0,0.1,0,0.1,0,0.2c0.1,21.9-17.5,39.9-39.5,40s-41.6-15.4-43.6-40.6C57.6,66.6,33.4,46.7,3.4,45.5v16.2
		C24.3,62.6,39.7,72.2,44.8,103.6z"/>
</g>
<g>
	<g>
		<path class="st0" d="M178.9,80.7l1-14.5l-4.2,0.5c-0.9,0.1-1.7,0.2-2.5,0.2c-0.4,0-0.6-0.1-0.6,0c0-0.1-0.1-0.4-0.1-1v-6h6.9V45.1
			h-6.9v-8.4h-17.4v8.4h-14.6l-3.5,4.6l-3.5-4.6H112l0.4,0.5c-2-0.8-4.3-1.2-6.9-1.2c-3.4,0-6.5,0.8-9.2,2.4
			c-2.8,1.6-4.9,3.8-6.5,6.7c-0.2,0.3-0.3,0.6-0.4,1c-0.5-2.2-1.4-4.2-2.6-5.7c-2.4-2.9-5.9-4.4-10.4-4.4c-2,0-4,0.3-5.7,1v-0.3
			H53.6v35.8h17.4V61.4c0-1.1,0.3-1.6,0.5-1.6c0.8-0.4,1.3,0.3,1.3,1v20.1h17.4v-8.2c1.6,2.8,4,5,7,6.5c2.9,1.4,6.3,2.2,10.2,2.2
			c1.6,0,3.1-0.2,4.7-0.5h20.5l4.3-5.5l4.3,5.5h21.3l-2.1-2.6c2.1,1.5,4.9,2.5,8.2,2.8h-9.5v12.6c-1.6-0.6-3.3-0.9-5.2-0.9
			c-3.2,0-6,0.8-8.5,2.3c-0.6,0.4-1.2,0.8-1.7,1.3l-0.3-4l-6.3,0.5c-1.9,0.1-3.6,0.5-5.1,1.1v-0.5h-16.9v8.4c-0.7-2-1.8-3.6-3.2-5
			c-2.8-2.7-7-4.1-12.5-4.1c-2.4,0-5,0.4-7.8,1.1c-2.7,0.7-5,1.7-6.9,2.8c-1.5-1.2-3.4-2.1-5.6-2.8c-2.3-0.7-4.8-1.1-7.3-1.1
			c-3.7,0-7.1,0.8-10,2.3c-3,1.5-5.4,3.8-7.1,6.7c-1.7,2.8-2.5,6.1-2.5,9.7c0,5.5,1.8,10,5.2,13.4c3.4,3.3,8.1,5,13.9,5
			c2.6,0,5.2-0.4,7.5-1c2.4-0.7,4.5-1.8,6.2-3.1c1,1,2.2,1.9,3.6,2.6c2.1,1,4.4,1.6,6.9,1.6c1.4,0,2.7-0.2,3.9-0.6l15.6,0.1v0h17.4
			v-17.9c0-0.8,0.2-1.5,0.4-1.8c0,0,0.5-0.5,2.5-0.7l2.4-0.2c-0.1,0.8-0.1,1.7-0.1,2.5c0,3.5,0.7,6.6,2,9.4c1.4,2.9,3.3,5.2,5.8,6.8
			c2.5,1.6,5.4,2.5,8.5,2.5c1.9,0,3.7-0.3,5.3-0.9v0.4h17.2V81.2h-1.4c0.3,0,0.6,0,0.9-0.1L178.9,80.7z M85.8,108.3
			c-0.6,0.4-1.2,0.9-1.6,1.5c-0.6,0.7-1,1.4-1.4,2.2l-0.2-0.6l2.2-5.9L85.8,108.3z M78.2,113.2c-0.6,0.5-1.5,1-2.5,1.3
			c-2.2,0.8-4.2,0.7-5-0.2c-0.5-0.5-0.7-1.6-0.7-3c0-1.4,0.3-2.4,0.7-2.9c0.4-0.4,1.1-0.7,2.2-0.7c0.8,0,1.7,0.2,2.9,0.6
			c1,0.4,1.9,0.8,2.5,1.3l2.1,1.7L78.2,113.2z M159.3,111.4c0,2-0.5,2.9-0.7,3.2c-0.1,0.2-0.4,0.5-1.5,0.5c-0.8,0-1.1-0.2-1.4-0.6
			c-0.5-0.6-0.8-1.8-0.8-3.3c0-1.9,0.4-2.7,0.7-3c0.1-0.2,0.4-0.5,1.4-0.5c1.1,0,1.3,0.4,1.5,0.5
			C158.9,108.6,159.3,109.4,159.3,111.4z M121.6,68.5l-1,1.2l-0.5-1.2H121.6z M122.6,63.7v-1c0-2-0.2-3.8-0.6-5.5l4.5,5.4l-3.9,4.7
			v-2.8V63.7z M147.4,62.5l2.3-2.8h5.3v6c0,3.1,0.5,5.8,1.6,8L147.4,62.5z"/>
	</g>
	<path class="st1" d="M84.6,51.7c1.7,2,2.5,5.2,2.5,9.3v17.1H76.7V61.5c0-1.7-0.3-3-0.9-3.7c-0.6-0.8-1.5-1.2-2.7-1.2
		c-1.6,0-2.8,0.5-3.7,1.5c-0.9,1-1.4,2.3-1.4,4v16H57.6V49.3h10.1v3.9c1-1.5,2.3-2.6,3.9-3.4c1.6-0.8,3.4-1.2,5.3-1.2
		C80.3,48.6,82.9,49.6,84.6,51.7z"/>
	<path class="st1" d="M119.5,65.7h-17.8c0.3,1.9,1,3.2,2,4c1.1,0.8,2.6,1.2,4.5,1.2c1.4,0,2.8-0.2,4.3-0.7c1.4-0.5,2.7-1.1,3.9-1.9
		l2.6,6.8c-1.4,1.1-3.2,1.9-5.2,2.5c-2,0.6-4.1,0.9-6.1,0.9c-3.3,0-6.2-0.6-8.6-1.8c-2.4-1.2-4.3-2.9-5.6-5.2c-1.3-2.3-2-4.9-2-8
		c0-2.9,0.6-5.5,1.8-7.7c1.2-2.3,2.9-4.1,5.1-5.3c2.2-1.3,4.7-1.9,7.5-1.9c4.1,0,7.4,1.3,9.8,4c2.4,2.6,3.6,6.2,3.6,10.8V65.7z
		 M101.6,60.8h9.2c-0.2-3.4-1.7-5.1-4.4-5.1C103.6,55.6,102,57.4,101.6,60.8z"/>
	<path class="st1" d="M143.3,63.2l12.2,14.9h-12.2l-6-7.6l-6,7.6h-12.1l12.2-14.9l-11.5-13.9h12.2l5.2,6.8l5.3-6.8h12.2L143.3,63.2z
		"/>
	<path class="st1" d="M176.5,70.9l-0.5,7.4c-1.2,0.2-2.5,0.2-3.6,0.2c-4.7,0-8.1-1-10.2-3c-2.1-2-3.2-5-3.2-9.2V57h-5.4v-7.7h5.4V41
		h10.4v8.4h6.9V57h-6.9v9.5c0,3,1.4,4.6,4.3,4.6C174.5,71.1,175.5,71,176.5,70.9z"/>
	<path class="st1" d="M60.4,123.1c-2.8-2.7-4.2-6.3-4.2-10.8c0-3,0.7-5.7,2-8c1.3-2.3,3.2-4.1,5.7-5.3c2.4-1.2,5.3-1.9,8.5-1.9
		c2.1,0,4.2,0.3,6.2,0.9s3.6,1.5,4.9,2.5l-2.6,7c-1-0.8-2.2-1.4-3.5-1.9c-1.4-0.5-2.7-0.7-3.9-0.7c-2.1,0-3.7,0.6-4.8,1.8
		c-1.1,1.2-1.7,2.9-1.7,5.3c0,2.4,0.6,4.2,1.7,5.4c1.1,1.2,2.7,1.8,4.8,1.8c1.2,0,2.5-0.2,3.9-0.7c1.4-0.5,2.6-1.1,3.5-2l2.6,7.1
		c-1.3,1.1-3,1.9-5.1,2.5c-2,0.6-4.2,0.9-6.5,0.9C67,127.1,63.1,125.8,60.4,123.1z"/>
	<path class="st1" d="M110,100.3c2.2,2.1,3.2,5.3,3.2,9.7v16.6h-9.8v-4c-0.5,1.4-1.5,2.5-2.7,3.3c-1.3,0.8-2.8,1.2-4.6,1.2
		c-2,0-3.8-0.4-5.4-1.2c-1.6-0.8-2.9-1.9-3.8-3.3c-0.9-1.4-1.4-3-1.4-4.8c0-2.1,0.5-3.7,1.6-4.9c1.1-1.2,2.8-2.1,5.1-2.7
		c2.3-0.5,5.5-0.8,9.5-0.8h1.6v-0.7c0-1.4-0.3-2.4-1-3c-0.7-0.6-1.8-0.8-3.5-0.8c-1.3,0-2.9,0.3-4.6,0.8c-1.7,0.5-3.4,1.2-4.9,2
		l-2.6-6.8c1.7-1,3.8-1.9,6.3-2.5c2.5-0.7,4.8-1,6.9-1C104.5,97.2,107.8,98.2,110,100.3z M102,118.7c0.9-1,1.3-2.3,1.3-3.8v-0.7
		h-0.9c-2.5,0-4.3,0.2-5.3,0.7c-1.1,0.4-1.6,1.2-1.6,2.3c0,0.9,0.3,1.6,0.8,2.2c0.6,0.6,1.3,0.9,2.2,0.9
		C100,120.1,101.1,119.6,102,118.7z"/>
	<path class="st1" d="M141.3,105.6l-5.7,0.6c-2.3,0.2-3.8,0.8-4.7,1.8c-0.9,1-1.3,2.4-1.3,4.2v14.4h-10.4V97.9h9.9v5
		c0.7-1.8,1.8-3.1,3.3-4c1.5-0.9,3.4-1.4,5.6-1.5l2.9-0.2L141.3,105.6z"/>
	<path class="st1" d="M173.5,85.4v41.2h-10.2v-3.9c-0.8,1.4-2,2.4-3.6,3.2c-1.6,0.8-3.3,1.2-5.2,1.2c-2.5,0-4.7-0.6-6.6-1.9
		c-1.9-1.3-3.4-3.1-4.5-5.4c-1.1-2.3-1.6-4.9-1.6-7.9c0-3,0.5-5.6,1.6-7.8c1.1-2.2,2.6-4,4.5-5.2c1.9-1.2,4.1-1.8,6.6-1.8
		c1.8,0,3.5,0.4,5.1,1.1c1.5,0.7,2.7,1.7,3.6,3V85.4H173.5z M161.8,117.5c1-1.2,1.5-3,1.5-5.4c0-2.3-0.5-4.1-1.5-5.3
		c-1-1.2-2.4-1.8-4.2-1.8c-1.8,0-3.2,0.6-4.2,1.8s-1.5,2.9-1.5,5.2c0,2.3,0.5,4.2,1.5,5.4c1,1.3,2.4,1.9,4.1,1.9
		C159.4,119.3,160.8,118.7,161.8,117.5z"/>
</g>
</svg>
