<svg id="Layer_1" data-name="Layer 1" xmlns="http://www.w3.org/2000/svg" viewBox="0 0 185.49 231.39"><defs><style>.cls-1{fill:#e15443;}</style></defs><title>Stars</title><path class="cls-1" d="M11.11,57.06C19,58.31,25.8,62.92,30.77,69.12c5.61,7,8.4,15.91,9.86,24.63.41,2.46.59,4.93.92,7.39.36,2.62,1.92,5.27,4.88,5.22a3,3,0,0,0,2.88-2.88,96.66,96.66,0,0,1,4.86-26A31.82,31.82,0,0,1,78.45,56.19l-1.53-5.56c-3.73,1.25-7.63-.41-11.06-1.89s-7-3.2-9.44-6.25c-4.48-5.66-5.05-13.81-6.14-20.66L47.81,6.4a2.83,2.83,0,0,0-3.16-2.06,2.91,2.91,0,0,0-2.49,2.82c-.84,9.07-1.89,18.17-4.5,26.93-.65,2.18-1.39,4.33-2.25,6.44a19.45,19.45,0,0,1-2.5,4.78,7.88,7.88,0,0,1-4.79,2.59,66.88,66.88,0,0,1-6.91,1.17c-1.27.16-2.54.28-3.81.38s-2.84,0-4.2.26-2.39,1.55-3.36,2.54C7.25,54.9,11.32,59,13.91,56.32l1.71-1.74-2,.84a94.94,94.94,0,0,0,14.07-1.56,20.19,20.19,0,0,0,6.35-2,12.81,12.81,0,0,0,4.45-4.48c2.25-3.6,3.64-7.94,4.83-12A100,100,0,0,0,46.1,22.49c.8-5.09,1.35-10.2,1.82-15.33l-5.66.77,2.35,14.71c.67,4.2,1.23,8.46,2.3,12.58a29.4,29.4,0,0,0,5.31,11.2c2.7,3.34,6.47,5.44,10.35,7.13C67.52,55.71,73,58,78.45,56.19a2.89,2.89,0,0,0-1.53-5.56,37.4,37.4,0,0,0-20.4,11.61c-6.13,6.83-8.93,15.53-10.74,24.37a121.17,121.17,0,0,0-2.23,16.87l2.88-2.88c-.59,0,1.38.48,1,.62,0,0-.29-1.23-.22-.76-.18-1.16-.23-2.35-.38-3.52-.29-2.38-.64-4.76-1.1-7.12a66.8,66.8,0,0,0-4.17-13.55,44.23,44.23,0,0,0-16-19.66,33,33,0,0,0-12.92-5.1,3,3,0,0,0-3.54,2C8.72,54.89,9.56,56.82,11.11,57.06Z" transform="translate(-9.01 -4.31)"/><path class="cls-1" d="M44.66,191.54c7.07,1.11,13.09,5.21,17.5,10.75,5,6.27,7.46,14.22,8.75,22,.38,2.32.45,4.7.88,7s2,4.4,4.59,4.38a2.94,2.94,0,0,0,2.88-2.88,85.18,85.18,0,0,1,4.43-23.45,28.2,28.2,0,0,1,21.45-18.62l-1.53-5.55c-4.11,1.36-8.9-1.14-12.52-3A15.57,15.57,0,0,1,83.27,174c-1.6-3.93-2.17-8.23-2.84-12.39l-2.52-15.8a2.86,2.86,0,0,0-3.16-2.06,2.92,2.92,0,0,0-2.5,2.83c-.75,8.12-1.69,16.26-4,24.1a58.65,58.65,0,0,1-2,5.76,15.47,15.47,0,0,1-2.35,4.34,7.27,7.27,0,0,1-4.27,2.06c-2,.43-4,.76-6,1-1.18.14-2.37.25-3.55.34a20.65,20.65,0,0,0-3.86.26c-1.14.32-2,1.49-2.8,2.31-2.59,2.65,1.48,6.73,4.08,4.07L49,189.24l-2,.84a86.27,86.27,0,0,0,12.83-1.44,18.4,18.4,0,0,0,5.57-1.77,11.75,11.75,0,0,0,4.06-4A42.44,42.44,0,0,0,73.83,172a89,89,0,0,0,2.53-11.52c.73-4.61,1.22-9.25,1.65-13.89l-5.66.76,2.17,13.58A110.11,110.11,0,0,0,76.59,172a26.14,26.14,0,0,0,4.83,10c2.48,3.05,6,4.93,9.51,6.47,4.45,1.93,9.34,3.89,14.21,2.28a2.88,2.88,0,0,0-1.53-5.55,33.8,33.8,0,0,0-18.42,10.49c-5.5,6.14-8,13.93-9.67,21.87a110.5,110.5,0,0,0-2,15.26l2.88-2.88c.58,0,.75.53,1.21.71-.11,0-.09-.37-.11-.19s-.17-.88-.09-.34c-.16-1-.2-2.06-.32-3.07-.27-2.23-.6-4.46-1-6.66a60.37,60.37,0,0,0-3.8-12.25,39.92,39.92,0,0,0-14.4-17.56A29.7,29.7,0,0,0,46.19,186a3,3,0,0,0-3.54,2C42.28,189.37,43.12,191.3,44.66,191.54Z" transform="translate(-9.01 -4.31)"/><path class="cls-1" d="M89.76,98.74c12.37,1.91,23,9.17,30.79,18.79,8.64,10.68,13.12,24.19,15.47,37.56.67,3.79,1.14,7.6,1.51,11.43.33,3.48,1.73,8.17,6.12,7.95a3,3,0,0,0,2.88-2.88,171.29,171.29,0,0,1,2.66-21.41,126.15,126.15,0,0,1,5.13-19.72,51.32,51.32,0,0,1,21-26.31,50.64,50.64,0,0,1,17.2-6.76l-1.53-5.55c-6,2-12.28-.52-17.79-2.88s-11.07-5-15-9.77c-3.45-4.12-5.37-9.36-6.7-14.49-1.52-5.87-2.35-11.9-3.3-17.88l-3.85-24.06a2.85,2.85,0,0,0-3.16-2.07,2.92,2.92,0,0,0-2.49,2.83c-1.29,14-2.9,28-6.9,41.56-1,3.35-2.12,6.65-3.42,9.89a32.9,32.9,0,0,1-4.25,8.17,12.8,12.8,0,0,1-7.44,4.33,98.28,98.28,0,0,1-10.77,1.91c-4.23.55-8.47.65-12.71,1-2,.17-3.35,2.19-4.65,3.52C85.9,96.58,90,100.66,92.56,98l2.62-2.68-2,.85a142.58,142.58,0,0,0,21.71-2.45c3.23-.62,6.57-1.33,9.39-3.1a19.18,19.18,0,0,0,6.22-6.75c3.22-5.55,5.31-12,7.08-18.13a158.17,158.17,0,0,0,4.2-19.62c1.16-7.5,1.95-15,2.65-22.6l-5.66.77,3.61,22.61c1,6.45,1.89,13,3.54,19.33a43.59,43.59,0,0,0,7.69,16.45c4.13,5.17,9.93,8.32,15.89,10.91,7.13,3.1,15.2,6.49,23,3.8a2.88,2.88,0,0,0-1.53-5.55,56,56,0,0,0-30.74,17.51c-9.25,10.33-13.38,23.57-16.1,36.91a183.13,183.13,0,0,0-3.33,25.33l2.88-2.88c-.66,0,0,0,.15.1.33.13.21.51.09,0-.17-.78.07.34-.22-.45a7.85,7.85,0,0,1-.26-.95c-.25-1.17-.34-3.2-.53-4.84-.42-3.61-.94-7.2-1.62-10.76a101.36,101.36,0,0,0-6.2-20.82c-5.11-12.07-13.22-22.82-24.22-30.1a49.43,49.43,0,0,0-19.55-7.72,3,3,0,0,0-3.54,2C87.37,96.57,88.21,98.51,89.76,98.74Z" transform="translate(-9.01 -4.31)"/></svg>